<svg class="uitk-icon uitk-icon-spotlight-icon" aria-hidden="true" viewBox="0 0 24 24" xmlns="http://www.w3.org/2000/svg" xmlns:xlink="http://www.w3.org/1999/xlink"><path fill-rule="evenodd" d="M4 5a1 1 0 0 0-1 1v6a1 1 0 0 0 1 1h.47a1 1 0 0 1 .997 1.062 17.248 17.248 0 0 1-.202 1.777 5.01 5.01 0 0 0 3.067-2.34A1 1 0 0 1 9.197 13H13a1 1 0 0 0 1-1V6a1 1 0 0 0-1-1H4zM1 6a3 3 0 0 1 3-3h9a3 3 0 0 1 3 3v6a3 3 0 0 1-3 3H9.745A6.993 6.993 0 0 1 4 18a1 1 0 0 1-.97-1.242l.015-.06c.145-.581.256-1.17.332-1.763A3.001 3.001 0 0 1 1 12V6z" clip-rule="evenodd"></path><path d="M14.803 17H9.17A3.001 3.001 0 0 0 12 19h2.255A6.993 6.993 0 0 0 20 22a1 1 0 0 0 .97-1.242l-.015-.06a15.27 15.27 0 0 1-.332-1.763A3.001 3.001 0 0 0 23 16v-6a3 3 0 0 0-3-3h-2v2h2a1 1 0 0 1 1 1v6a1 1 0 0 1-1 1h-.47a1 1 0 0 0-.997 1.062c.036.595.104 1.188.202 1.777a5.01 5.01 0 0 1-3.067-2.34 1 1 0 0 0-.865-.499z"></path></svg>